<svg width="80" height="77" viewBox="0 0 80 77" fill="none" xmlns="http://www.w3.org/2000/svg">
<path d="M38.7391 32.4671C37.676 35.7685 31.0073 37.6626 30.437 33.2226C30.3789 30.7406 32.9202 29.3306 35.2344 29.1231C40.126 28.6656 44.677 31.685 46.9442 35.7073C52.4004 45.2124 46.8777 57.3034 37.7978 62.7143C32.5465 66.1567 26.113 67.8753 19.7682 67.6678C15.1009 67.6678 11.0288 64.6164 8.46811 61.1581C12.2163 62.4164 16.3743 63.9141 20.5654 63.5683C31.5222 63.0176 43.6776 54.7788 43.0133 43.3396C35.2677 55.6966 15.8095 46.5798 18.6055 33.1215C24.0866 12.0868 56.5279 19.0061 71.5042 27.4392C73.2427 28.4155 74.8815 29.5302 76.512 30.6581C77.4837 31.5892 79.3495 32.1186 79.6097 33.4966C80.8249 42.4431 79.3301 52.5707 73.4863 59.7056C75.4711 45.529 65.0846 31.1981 51.0689 26.7342C60.337 31.6956 69.2647 38.9874 72.0496 49.3226C72.9631 53.313 73.824 58.0536 71.9803 61.8737C70.8315 63.8051 68.8993 65.9492 66.9449 67.1916C67.6093 64.4196 67.7117 63.9248 67.9857 62.5148C69.3533 54.0179 66.1227 44.6059 59.3488 38.9848C63.6922 44.7921 66.8646 51.3231 66.4937 58.7027C66.1615 62.9538 65.6604 68.3355 61.6215 70.892C51.0163 77.3538 37.2691 77.9869 25.6756 73.672C23.5108 72.8899 21.3461 71.6715 19.4747 70.5435C19.4913 70.3467 19.674 70.3387 19.8235 70.3334C21.6007 70.3839 23.3752 70.5728 25.1524 70.4211C32.7873 69.9636 40.173 66.8511 45.7621 61.8418C59.6422 50.666 56.7798 25.013 36.375 23.9782C27.2452 23.3903 19.2671 34.1457 26.459 41.1715C33.3382 47.6306 43.9434 40.7299 38.7335 32.4644L38.7391 32.4671ZM31.9125 73.1772C45.2611 73.9008 60.6028 61.2352 58.9391 47.8115C58.6373 61.6582 45.7372 72.1184 31.9125 73.1772Z" fill="#FAFAFA"/>
<path d="M63.6202 8.09105C47.0411 1.874 23.2783 5.28978 15.6767 22.6401C12.7534 30.4107 14.6607 39.5647 20.2526 45.7924C23.5081 48.7213 19.5661 46.6889 18.193 45.8509C9.66123 41.1821 5.81612 30.5996 8.70065 21.701C15.8012 -0.110561 46.0473 -5.14645 63.6202 8.09105Z" fill="#FAFAFA"/>
<path d="M76.7888 24.3506C61.4803 15.2152 39.3453 10.8338 23.8597 22.0202C22.4257 23.1375 21.108 24.3559 19.9813 25.7632C23.9953 11.0918 44.1427 7.61752 58.1695 11.1344C63.2105 12.3395 68.1242 14.2283 72.4814 16.9604C74.1341 19.219 75.7867 21.7702 76.7888 24.3506Z" fill="#FAFAFA"/>
<path d="M32.0731 51.2991C36.6988 51.2991 37.1833 50.7086 39.4643 50.0116C37.8615 52.6984 33.7783 53.8956 30.6696 54.5553C14.8434 57.9977 -2.28382 43.8823 1.88242 28.0777C2.80148 24.191 5.22925 20.19 8.08333 17.4685C6.83761 20.4453 6.16215 21.8393 5.57528 26.4389C3.88664 40.8443 18.0408 51.3577 32.0731 51.2991Z" fill="#FAFAFA"/>
<path d="M20.0588 61.2512C7.26946 61.7008 0.146718 51.7115 0 40.2776C2.55511 47.1943 8.98301 53.6881 17.1023 55.6141C23.2146 57.3007 30.055 56.9496 35.7023 54.4196C32.5824 58.998 25.6978 61.1129 20.0616 61.2485L20.0588 61.2512Z" fill="#FAFAFA"/>
</svg>
